<svg xmlns="http://www.w3.org/2000/svg" width="64" height="64" viewBox="0 0 64 64">
  <defs>
    <linearGradient id="bg" x1="0" y1="0" x2="1" y2="1">
      <stop offset="0" stop-color="#0F1720"/>
      <stop offset="1" stop-color="#0b1220"/>
    </linearGradient>
  </defs>
  <circle cx="32" cy="32" r="30" fill="url(#bg)" stroke="#163046" stroke-width="2"/>
  <!-- Head silhouette -->
  <path d="M20 26c0-6 5-11 12-11s12 5 12 11v4c0 2-1.5 3.5-3.5 4.5-1.9.9-4.4 1.5-8.5 1.5s-6.6-.6-8.5-1.5C21.5 33.5 20 32 20 30v-4z" fill="#13202B"/>
  <!-- Beard -->
  <path d="M19 34c2 6 7 11 13 11s11-5 13-11" fill="none" stroke="#8aa4b6" stroke-width="1.6" stroke-linecap="round"/>
  <path d="M22 36c2 4 6 7 10 7s8-3 10-7" fill="none" stroke="#8aa4b6" stroke-width="1.4" stroke-linecap="round"/>
  <path d="M25 38c2 3 5 5 7 5s5-2 7-5" fill="none" stroke="#8aa4b6" stroke-width="1.2" stroke-linecap="round"/>
  <!-- Brain outline -->
  <path d="M24 26c0-4 3-7 8-7s8 3 8 7" fill="none" stroke="#E6EDF3" stroke-width="1.5"/>
  <!-- Circuit nodes and links -->
  <g stroke="#22d3ee" stroke-width="1.5" fill="#22d3ee">
    <circle cx="26" cy="24" r="1.4"/>
    <circle cx="30" cy="22" r="1.4"/>
    <circle cx="34" cy="23" r="1.4"/>
    <circle cx="38" cy="25" r="1.4"/>
    <path d="M26 24L30 22L34 23L38 25" fill="none"/>
    <circle cx="42" cy="28" r="1.4"/>
    <path d="M38 25L42 28" fill="none"/>
    <!-- Upward analytics arrow -->
    <path d="M24 31l6-3 5 2 6-3" fill="none" stroke-linecap="round"/>
    <path d="M41 27l3 1-2 3" fill="none" stroke-linecap="round"/>
  </g>
  <!-- Moustache hint -->
  <path d="M26 32c2 1 3 1 6 1s4 0 6-1" fill="none" stroke="#8aa4b6" stroke-width="1.2" stroke-linecap="round"/>
</svg>
